<svg width="75" height="75" viewBox="0 0 75 75" fill="none" xmlns="http://www.w3.org/2000/svg">
<circle cx="37.5" cy="37.5" r="37.5" fill="white"/>
<path d="M37.4695 0C47.8438 0 57.1806 4.21074 63.9544 10.9845C70.7282 17.7583 74.939 27.1562 74.939 37.4695C74.939 47.8438 70.7282 57.1806 63.9544 63.9544C57.1806 70.7282 47.7827 74.939 37.4695 74.939C27.1562 74.939 17.7583 70.7282 10.9845 63.9544C4.21074 57.2417 0 47.8438 0 37.4695C0 27.0952 4.21074 17.7583 10.9845 10.9845C17.7583 4.21074 27.1562 0 37.4695 0ZM25.2034 33.1367C24.5321 33.1367 23.9829 33.3198 23.6778 33.5639C23.4947 33.6859 23.3116 33.869 23.2506 34.0521C23.1286 34.2962 23.0675 34.5403 23.1286 34.9064C23.1286 35.8218 23.6168 37.0423 24.5932 38.4459L27.6444 43.3279C28.8649 45.2807 30.1465 47.2945 31.7941 48.7592C33.3198 50.1627 35.2116 51.1391 37.6526 51.1391C40.3377 51.1391 42.2905 50.1627 43.8771 48.6371C45.5248 47.1115 46.8674 44.9756 48.1489 42.8397L51.6273 37.1644C52.2986 35.6998 52.4817 34.7234 52.3596 34.1131C52.2986 33.7469 51.8714 33.6249 51.2612 33.5639C51.1391 33.5639 50.9561 33.5639 50.834 33.5639C50.6509 33.5639 50.5289 33.5639 50.3458 33.5639C50.2238 33.5639 50.1627 33.5639 50.1017 33.5639C49.7966 33.5639 49.4915 33.5639 49.1253 33.5028L50.2848 28.2547C41.4972 29.6583 34.9064 23.1286 25.6306 26.9731L26.2408 33.1977C25.8747 33.1977 25.5085 33.1977 25.2034 33.1367ZM11.4727 58.4011C15.8055 56.8755 23.4337 56.0822 26.9731 53.7022C27.5834 52.9089 28.2547 51.9325 28.8649 51.0781C29.2311 50.5289 29.5362 50.0407 29.8413 49.6745C29.9024 49.6135 29.9634 49.5525 30.0244 49.4915C28.5598 47.9658 27.3393 46.1351 26.1798 44.3043L23.1286 39.4223C21.9691 37.7136 21.3588 36.188 21.3588 34.9674C21.3588 34.3572 21.4199 33.808 21.664 33.3808C21.9081 32.8926 22.2742 32.4654 22.7014 32.1603C22.9455 32.0382 23.1896 31.8552 23.4337 31.7941C23.2506 29.1701 23.1896 25.8137 23.3116 23.0065C23.3727 22.3352 23.4947 21.664 23.6778 20.9927C24.4711 18.1855 26.4239 15.9276 28.8649 14.402C29.7193 13.8527 30.6347 13.4255 31.6721 13.0594C33.4418 12.3881 32.5875 9.70301 34.5403 9.64198C39.1172 9.51993 46.6233 13.4255 49.5525 16.5989C51.2612 18.4296 52.3596 20.8706 52.5427 24.105L52.3596 32.0993C53.214 32.3434 53.7632 32.8926 54.0073 33.7469C54.2514 34.7234 54.0073 36.0659 53.153 37.9577C53.153 38.0187 53.0919 38.0187 53.0919 38.0797L49.6135 43.8161C48.271 46.013 46.8674 48.271 45.0366 49.9797L44.9756 50.0407C45.2197 50.3458 45.4638 50.712 45.7079 51.0781C46.1961 51.7494 46.6843 52.5427 47.2335 53.275C50.4679 56.0212 59.0114 56.8755 63.5273 58.5232C68.1652 52.7868 70.9113 45.4638 70.9113 37.5305C70.9113 28.3157 67.1888 19.9552 61.1473 13.9137C55.1058 7.87225 46.7453 4.14971 37.5305 4.14971C28.3157 4.14971 19.9552 7.87225 13.9137 13.9137C7.87225 19.9552 4.14971 28.3157 4.14971 37.5305C4.08869 45.4028 6.83482 52.6648 11.4727 58.4011ZM46.9894 55.2278C46.1351 54.2514 45.2807 52.9699 44.4874 51.8714C44.2433 51.5663 44.0602 51.2002 43.8161 50.9561C42.1684 52.1766 40.1546 52.9699 37.5305 52.9699C34.7844 52.9699 32.6485 51.9935 30.8788 50.4679C30.8788 50.4679 30.8788 50.5289 30.8177 50.5289C30.5126 50.9561 30.2075 51.3832 29.8413 51.9325C29.1701 52.9089 28.4378 53.9463 27.7665 54.8617C27.8275 61.0252 43.3889 64.6867 46.9894 55.2278Z" fill="#AFAFAF"/>
</svg>
