<svg width="112" height="123" viewBox="0 0 112 123" fill="none" xmlns="http://www.w3.org/2000/svg">
<g clip-path="url(#clip0_249_2)">
<path fill-rule="evenodd" clip-rule="evenodd" d="M56.75 113.57V75.07C56.7579 72.6033 57.7413 70.2398 59.4856 68.4956C61.2298 66.7513 63.5933 65.7679 66.06 65.76H102.56C105.027 65.7679 107.39 66.7513 109.134 68.4956C110.879 70.2398 111.862 72.6033 111.87 75.07V113.57C111.862 116.037 110.879 118.4 109.134 120.144C107.39 121.889 105.027 122.872 102.56 122.88H66.06C63.5933 122.872 61.2298 121.889 59.4856 120.144C57.7413 118.4 56.7579 116.037 56.75 113.57V113.57ZM59.49 11.47L79.08 29.82H59.49V11.47V11.47ZM20.72 69.38C20.1629 69.411 19.6405 69.6605 19.2661 70.0742C18.8916 70.4879 18.6954 71.0326 18.72 71.59C18.7024 71.8673 18.7406 72.1453 18.8323 72.4075C18.9239 72.6698 19.0672 72.9111 19.2536 73.1171C19.44 73.3231 19.6658 73.4896 19.9177 73.6069C20.1695 73.7242 20.4423 73.7899 20.72 73.8H45.3V69.38H20.72ZM20.72 85.21C20.1629 85.2411 19.6405 85.4905 19.2661 85.9042C18.8916 86.3179 18.6954 86.8626 18.72 87.42C18.7024 87.6973 18.7406 87.9753 18.8323 88.2375C18.9239 88.4998 19.0672 88.7411 19.2536 88.9471C19.44 89.1531 19.6658 89.3196 19.9177 89.4369C20.1695 89.5542 20.4423 89.6199 20.72 89.63H45.3V85.21H20.72ZM20.72 37.71C20.1629 37.7411 19.6405 37.9905 19.2661 38.4042C18.8916 38.8179 18.6954 39.3626 18.72 39.92C18.7038 40.197 18.743 40.4744 18.8351 40.7361C18.9273 40.9978 19.0706 41.2385 19.2568 41.4442C19.443 41.6499 19.6682 41.8165 19.9194 41.9342C20.1706 42.052 20.4428 42.1185 20.72 42.13H43.45C44.0071 42.099 44.5295 41.8495 44.9039 41.4358C45.2783 41.0221 45.4745 40.4774 45.45 39.92C45.4648 39.6433 45.4247 39.3665 45.3321 39.1054C45.2394 38.8443 45.096 38.6041 44.9101 38.3987C44.7241 38.1932 44.4994 38.0266 44.2488 37.9084C43.9983 37.7902 43.7268 37.7228 43.45 37.71H20.72ZM20.72 21.88C20.1629 21.9111 19.6405 22.1605 19.2661 22.5742C18.8916 22.9879 18.6954 23.5326 18.72 24.09C18.7024 24.3673 18.7406 24.6453 18.8323 24.9075C18.9239 25.1698 19.0672 25.4111 19.2536 25.6171C19.44 25.8231 19.6658 25.9896 19.9177 26.1069C20.1695 26.2242 20.4423 26.2899 20.72 26.3H33.22C33.7771 26.269 34.2995 26.0195 34.6739 25.6058C35.0483 25.1921 35.2445 24.6474 35.22 24.09C35.2348 23.8133 35.1947 23.5365 35.1021 23.2754C35.0094 23.0143 34.866 22.7741 34.6801 22.5687C34.4941 22.3632 34.2694 22.1966 34.0188 22.0784C33.7683 21.9602 33.4968 21.8928 33.22 21.88H20.72ZM20.72 53.55C20.1629 53.5811 19.6405 53.8305 19.2661 54.2442C18.8916 54.6579 18.6954 55.2026 18.72 55.76C18.7038 56.037 18.743 56.3144 18.8351 56.5761C18.9273 56.8378 19.0706 57.0785 19.2568 57.2842C19.443 57.4899 19.6682 57.6565 19.9194 57.7742C20.1706 57.892 20.4428 57.9585 20.72 57.97H59.16C59.7162 57.9364 60.2371 57.6862 60.611 57.2731C60.9848 56.86 61.1819 56.3168 61.16 55.76C61.1762 55.483 61.137 55.2056 61.0449 54.9439C60.9527 54.6823 60.8094 54.4415 60.6232 54.2358C60.437 54.0301 60.2118 53.8635 59.9606 53.7458C59.7093 53.628 59.4372 53.5615 59.16 53.55H20.72ZM90 32.45C90.0008 31.7399 89.7698 31.049 89.342 30.4822C88.9142 29.9155 88.3131 29.5039 87.63 29.31L58.74 1.20001C58.4384 0.824512 58.0562 0.521681 57.6218 0.313954C57.1873 0.106228 56.7116 -0.00107095 56.23 8.5332e-06H5.87C5.09961 -0.00130612 4.33652 0.149297 3.6244 0.443201C2.91228 0.737105 2.26509 1.16854 1.71988 1.71282C1.17467 2.25711 0.742133 2.90355 0.447016 3.61517C0.151898 4.32679 -6.01187e-06 5.08962 -4.89014e-06 5.86001V106.25C-0.00145775 107.021 0.149784 107.785 0.444994 108.497C0.740205 109.209 1.17354 109.856 1.72 110.4C2.82463 111.494 4.31562 112.108 5.87 112.11H45.39V105.56H6.55V6.56001H52.94V33.08C52.94 33.9526 53.2866 34.7894 53.9036 35.4064C54.5206 36.0234 55.3574 36.37 56.23 36.37H83.43V57.82H90V32.45ZM71.19 88.45C70.1 87.38 69.19 86.71 70.59 85.38L75 81C76.39 79.58 77.21 79.66 78.51 81L84.43 87L90.34 81.1C91.41 80 92.09 79.1 93.41 80.49L97.71 84.9C99.13 86.3 99.05 87.12 97.71 88.42L91.78 94.35L97.71 100.29C99.04 101.59 99.12 102.41 97.71 103.8L93.41 108.21C92.09 109.58 91.41 108.7 90.34 107.61L84.43 101.71L78.49 107.65C77.19 108.98 76.37 109.05 74.98 107.65L70.57 103.34C69.21 102.02 70.08 101.34 71.17 100.27L77.08 94.36L71.17 88.45H71.19Z" fill="#A43CE3"/>
</g>
<defs>
<clipPath id="clip0_249_2">
<rect width="111.87" height="122.88" fill="white"/>
</clipPath>
</defs>
</svg>
