<svg width="181" height="48" viewBox="0 0 181 48" fill="none" xmlns="http://www.w3.org/2000/svg">
<path d="M52.064 15.104L50.752 14.912V14.112H52.912C53.2747 14.112 53.7333 14.0907 54.288 14.048C54.8 14.0053 55.1787 13.984 55.424 13.984C56.896 13.984 57.9467 14.2133 58.576 14.672C59.216 15.1307 59.536 15.8027 59.536 16.688C59.536 17.4453 59.3173 18.096 58.88 18.64C58.4427 19.184 57.8453 19.5253 57.088 19.664C58.112 19.6427 58.9173 19.8827 59.504 20.384C60.0907 20.8853 60.384 21.568 60.384 22.432C60.384 23.5093 60 24.3893 59.232 25.072C58.4747 25.7547 57.216 26.096 55.456 26.096C55.072 26.096 54.704 26.08 54.352 26.048C53.52 26.016 53.024 26 52.864 26H50.736V25.216L52.064 25.056V15.104ZM53.76 19.36C53.9093 19.3707 54.2133 19.376 54.672 19.376H55.552C56.2987 19.376 56.864 19.168 57.248 18.752C57.632 18.336 57.824 17.744 57.824 16.976C57.824 16.2293 57.632 15.6853 57.248 15.344C56.864 14.992 56.208 14.816 55.28 14.816C54.896 14.816 54.5013 14.8373 54.096 14.88L53.76 14.912V19.36ZM53.76 25.104C54.0053 25.1893 54.56 25.232 55.424 25.232C56.5013 25.232 57.28 25.0133 57.76 24.576C58.2507 24.128 58.496 23.488 58.496 22.656C58.496 21.8347 58.2827 21.2373 57.856 20.864C57.44 20.4907 56.7627 20.304 55.824 20.304C54.736 20.304 54.048 20.3147 53.76 20.336V25.104ZM68.9531 26.144C68.6545 26.144 68.4305 26.0853 68.2811 25.968C68.1425 25.8507 68.0731 25.6587 68.0731 25.392V24.848C67.7211 25.2 67.2785 25.5093 66.7451 25.776C66.2225 26.0427 65.6945 26.176 65.1611 26.176C64.1691 26.176 63.4651 25.9093 63.0491 25.376C62.6331 24.8427 62.4251 23.9627 62.4251 22.736V18.096L61.5291 17.84V17.136L63.7691 16.928H63.7851L64.0891 17.12V22.608C64.0891 23.2267 64.1318 23.712 64.2171 24.064C64.3131 24.4053 64.4731 24.6613 64.6971 24.832C64.9318 24.992 65.2678 25.072 65.7051 25.072C66.1318 25.072 66.5318 24.9813 66.9051 24.8C67.2785 24.6187 67.6038 24.4053 67.8811 24.16V18.096L66.7291 17.84V17.136L69.1611 16.928H69.1771L69.5451 17.12V25.184H70.5051L70.4891 25.904C70.1905 25.9787 69.9291 26.0373 69.7051 26.08C69.4918 26.1227 69.2411 26.144 68.9531 26.144ZM71.7825 23.6C71.7825 22.5973 72.2838 21.8613 73.2865 21.392C74.2892 20.912 75.5585 20.656 77.0945 20.624V20.176C77.0945 19.6747 77.0412 19.28 76.9345 18.992C76.8278 18.704 76.6412 18.496 76.3745 18.368C76.1185 18.2293 75.7505 18.16 75.2705 18.16C74.7265 18.16 74.2358 18.24 73.7985 18.4C73.3718 18.5493 72.9452 18.736 72.5185 18.96L72.1185 18.128C72.2572 18.0107 72.5132 17.856 72.8865 17.664C73.2598 17.472 73.6918 17.3013 74.1825 17.152C74.6732 17.0027 75.1638 16.928 75.6545 16.928C76.4118 16.928 77.0092 17.0347 77.4465 17.248C77.8945 17.4507 78.2145 17.7813 78.4065 18.24C78.5985 18.6987 78.6945 19.312 78.6945 20.08V25.216H79.6385V25.92C79.4252 25.9733 79.1532 26.0267 78.8225 26.08C78.5025 26.1333 78.2198 26.16 77.9745 26.16C77.6758 26.16 77.4732 26.112 77.3665 26.016C77.2598 25.9307 77.2065 25.7333 77.2065 25.424V24.896C76.8865 25.216 76.4918 25.5093 76.0225 25.776C75.5638 26.0427 75.0412 26.176 74.4545 26.176C73.6865 26.176 73.0465 25.9573 72.5345 25.52C72.0332 25.072 71.7825 24.432 71.7825 23.6ZM75.1425 25.088C75.4198 25.088 75.7398 25.0027 76.1025 24.832C76.4652 24.6613 76.7958 24.4587 77.0945 24.224V21.472C75.9318 21.472 75.0518 21.6533 74.4545 22.016C73.8678 22.368 73.5745 22.832 73.5745 23.408C73.5745 23.984 73.7132 24.4107 73.9905 24.688C74.2785 24.9547 74.6625 25.088 75.1425 25.088ZM81.7113 18.352L80.5592 18.064V17.2L82.8473 16.912H82.8953L83.2313 17.2V17.872L83.2153 18.256C83.5993 17.9147 84.1059 17.6053 84.7352 17.328C85.3646 17.0507 85.9673 16.912 86.5433 16.912C87.2153 16.912 87.7326 17.04 88.0953 17.296C88.4686 17.552 88.7299 17.9467 88.8793 18.48C89.0286 19.0027 89.1033 19.712 89.1033 20.608V25.088L90.2233 25.2V26H86.4313V25.216L87.4233 25.088V20.592C87.4233 19.9627 87.3806 19.472 87.2953 19.12C87.2099 18.7573 87.0499 18.4907 86.8153 18.32C86.5806 18.1387 86.2393 18.048 85.7913 18.048C85.4073 18.048 84.9966 18.144 84.5593 18.336C84.1219 18.528 83.7326 18.752 83.3913 19.008V25.072L84.4793 25.216V26H80.7033V25.216L81.7113 25.072V18.352ZM91.3763 23.6C91.3763 22.5973 91.8776 21.8613 92.8803 21.392C93.8829 20.912 95.1523 20.656 96.6883 20.624V20.176C96.6883 19.6747 96.6349 19.28 96.5283 18.992C96.4216 18.704 96.2349 18.496 95.9683 18.368C95.7123 18.2293 95.3443 18.16 94.8643 18.16C94.3203 18.16 93.8296 18.24 93.3923 18.4C92.9656 18.5493 92.5389 18.736 92.1123 18.96L91.7122 18.128C91.8509 18.0107 92.1069 17.856 92.4803 17.664C92.8536 17.472 93.2856 17.3013 93.7763 17.152C94.2669 17.0027 94.7576 16.928 95.2483 16.928C96.0056 16.928 96.6029 17.0347 97.0403 17.248C97.4883 17.4507 97.8083 17.7813 98.0003 18.24C98.1923 18.6987 98.2883 19.312 98.2883 20.08V25.216H99.2323V25.92C99.0189 25.9733 98.7469 26.0267 98.4163 26.08C98.0963 26.1333 97.8136 26.16 97.5683 26.16C97.2696 26.16 97.0669 26.112 96.9603 26.016C96.8536 25.9307 96.8003 25.7333 96.8003 25.424V24.896C96.4803 25.216 96.0856 25.5093 95.6163 25.776C95.1576 26.0427 94.6349 26.176 94.0483 26.176C93.2803 26.176 92.6403 25.9573 92.1283 25.52C91.6269 25.072 91.3763 24.432 91.3763 23.6ZM94.7363 25.088C95.0136 25.088 95.3336 25.0027 95.6963 24.832C96.0589 24.6613 96.3896 24.4587 96.6883 24.224V21.472C95.5256 21.472 94.6456 21.6533 94.0483 22.016C93.4616 22.368 93.1683 22.832 93.1683 23.408C93.1683 23.984 93.3069 24.4107 93.5843 24.688C93.8723 24.9547 94.2563 25.088 94.7363 25.088ZM104.265 26.176C103.71 26.176 103.214 26.128 102.777 26.032C102.34 25.936 101.86 25.808 101.337 25.648C101.017 25.5307 100.777 25.4667 100.617 25.456L100.745 22.56H101.769L102.041 24.64C102.222 24.8107 102.516 24.9653 102.921 25.104C103.337 25.232 103.79 25.296 104.281 25.296C105.092 25.296 105.705 25.1147 106.121 24.752C106.548 24.3893 106.761 23.888 106.761 23.248C106.761 22.832 106.644 22.4747 106.409 22.176C106.185 21.8773 105.881 21.6213 105.497 21.408C105.124 21.1947 104.606 20.944 103.945 20.656C103.348 20.3893 102.825 20.1173 102.377 19.84C101.94 19.5627 101.556 19.1947 101.225 18.736C100.905 18.2667 100.745 17.7067 100.745 17.056C100.745 16.4693 100.9 15.9467 101.209 15.488C101.529 15.0187 101.982 14.6507 102.569 14.384C103.166 14.1173 103.86 13.984 104.649 13.984C105.14 13.984 105.572 14.0213 105.945 14.096C106.329 14.1707 106.761 14.272 107.241 14.4C107.454 14.4747 107.636 14.5227 107.785 14.544L107.689 17.232H106.713L106.393 15.264C106.286 15.1573 106.062 15.056 105.721 14.96C105.39 14.864 105.028 14.816 104.633 14.816C103.897 14.816 103.337 14.9707 102.953 15.28C102.58 15.5893 102.393 16.0373 102.393 16.624C102.393 17.0507 102.505 17.408 102.729 17.696C102.964 17.984 103.252 18.2293 103.593 18.432C103.934 18.6347 104.478 18.912 105.225 19.264C105.918 19.5947 106.484 19.8933 106.921 20.16C107.358 20.4267 107.732 20.7787 108.041 21.216C108.361 21.6427 108.521 22.1547 108.521 22.752C108.521 23.3173 108.361 23.8613 108.041 24.384C107.732 24.9067 107.252 25.3387 106.601 25.68C105.961 26.0107 105.182 26.176 104.265 26.176ZM112.581 26.16C111.973 26.16 111.52 26.0213 111.221 25.744C110.922 25.4667 110.773 24.992 110.773 24.32V18.176H109.621V17.456C109.674 17.4453 109.824 17.408 110.069 17.344C110.314 17.28 110.48 17.2213 110.565 17.168C110.736 17.072 110.869 16.88 110.965 16.592C111.05 16.3893 111.152 16.064 111.269 15.616C111.386 15.168 111.456 14.9013 111.477 14.816H112.421L112.453 17.12H115.125V18.176H112.453V23.088C112.453 23.696 112.469 24.1227 112.501 24.368C112.544 24.6133 112.624 24.7733 112.741 24.848C112.869 24.9227 113.082 24.96 113.381 24.96C113.669 24.96 113.984 24.9227 114.325 24.848C114.677 24.7733 114.949 24.6933 115.141 24.608L115.381 25.328C115.125 25.52 114.709 25.7067 114.133 25.888C113.568 26.0693 113.05 26.16 112.581 26.16ZM116.361 21.536C116.361 20.576 116.558 19.744 116.953 19.04C117.347 18.336 117.865 17.8027 118.505 17.44C119.155 17.0667 119.849 16.88 120.585 16.88C121.929 16.88 122.937 17.3067 123.609 18.16C124.291 19.0133 124.633 20.1333 124.633 21.52C124.633 22.4907 124.435 23.328 124.041 24.032C123.646 24.736 123.123 25.2693 122.473 25.632C121.833 25.9947 121.145 26.176 120.409 26.176C119.065 26.176 118.051 25.7493 117.369 24.896C116.697 24.0427 116.361 22.9227 116.361 21.536ZM120.505 25.264C121.241 25.264 121.806 24.96 122.201 24.352C122.595 23.744 122.793 22.8427 122.793 21.648C122.793 20.464 122.611 19.5253 122.249 18.832C121.886 18.1387 121.305 17.792 120.505 17.792C119.769 17.792 119.198 18.096 118.793 18.704C118.398 19.312 118.201 20.2133 118.201 21.408C118.201 22.592 118.387 23.5307 118.761 24.224C119.134 24.9173 119.715 25.264 120.505 25.264ZM126.127 25.216L127.327 25.12V18.352L126.175 18.064V17.2L128.383 16.912H128.415L128.767 17.2V17.488L128.719 18.736H128.767C128.874 18.5547 129.066 18.32 129.343 18.032C129.62 17.744 129.978 17.4827 130.415 17.248C130.852 17.0027 131.327 16.88 131.839 16.88C132.052 16.88 132.228 16.9067 132.367 16.96V18.752C132.292 18.6987 132.17 18.6507 131.999 18.608C131.839 18.5547 131.658 18.528 131.455 18.528C130.57 18.528 129.748 18.8 128.991 19.344V25.104L131.023 25.232V26H126.127V25.216ZM137.359 26.176C136.068 26.176 135.082 25.7547 134.399 24.912C133.727 24.0693 133.391 22.944 133.391 21.536C133.391 20.608 133.567 19.792 133.919 19.088C134.271 18.384 134.762 17.84 135.391 17.456C136.031 17.072 136.756 16.88 137.567 16.88C138.559 16.88 139.327 17.1573 139.871 17.712C140.426 18.256 140.719 19.04 140.751 20.064C140.751 20.7147 140.714 21.2107 140.639 21.552H135.135C135.156 22.608 135.402 23.4613 135.871 24.112C136.34 24.752 137.007 25.072 137.871 25.072C138.298 25.072 138.74 24.9973 139.199 24.848C139.668 24.688 140.031 24.5013 140.287 24.288L140.591 24.992C140.282 25.312 139.823 25.5893 139.215 25.824C138.607 26.0587 137.988 26.176 137.359 26.176ZM138.991 20.704C139.023 20.48 139.039 20.2507 139.039 20.016C139.028 19.3227 138.879 18.7787 138.591 18.384C138.314 17.9787 137.871 17.776 137.263 17.776C136.644 17.776 136.148 18 135.775 18.448C135.412 18.896 135.204 19.648 135.151 20.704H138.991Z" fill="#1E124C"/>
<path d="M54.0312 37.0098H51.8691L51.8574 36.1016H53.8203C54.1445 36.1016 54.4277 36.0469 54.6699 35.9375C54.9121 35.8281 55.0996 35.6719 55.2324 35.4688C55.3691 35.2617 55.4375 35.0156 55.4375 34.7305C55.4375 34.418 55.377 34.1641 55.2559 33.9688C55.1387 33.7695 54.957 33.625 54.7109 33.5352C54.4688 33.4414 54.1602 33.3945 53.7852 33.3945H52.1211V41H50.9902V32.4688H53.7852C54.2227 32.4688 54.6133 32.5137 54.957 32.6035C55.3008 32.6895 55.5918 32.8262 55.8301 33.0137C56.0723 33.1973 56.2559 33.4316 56.3809 33.7168C56.5059 34.002 56.5684 34.3438 56.5684 34.7422C56.5684 35.0938 56.4785 35.4121 56.2988 35.6973C56.1191 35.9785 55.8691 36.209 55.5488 36.3887C55.2324 36.5684 54.8613 36.6836 54.4355 36.7344L54.0312 37.0098ZM53.9785 41H51.4238L52.0625 40.0801H53.9785C54.3379 40.0801 54.6426 40.0176 54.8926 39.8926C55.1465 39.7676 55.3398 39.5918 55.4727 39.3652C55.6055 39.1348 55.6719 38.8633 55.6719 38.5508C55.6719 38.2344 55.6152 37.9609 55.502 37.7305C55.3887 37.5 55.2109 37.3223 54.9688 37.1973C54.7266 37.0723 54.4141 37.0098 54.0312 37.0098H52.4199L52.4316 36.1016H54.6348L54.875 36.4297C55.2852 36.4648 55.6328 36.582 55.918 36.7812C56.2031 36.9766 56.4199 37.2266 56.5684 37.5312C56.7207 37.8359 56.7969 38.1719 56.7969 38.5391C56.7969 39.0703 56.6797 39.5195 56.4453 39.8867C56.2148 40.25 55.8887 40.5273 55.4668 40.7188C55.0449 40.9062 54.5488 41 53.9785 41ZM60.9336 41.1172C60.4922 41.1172 60.0918 41.043 59.7324 40.8945C59.377 40.7422 59.0703 40.5293 58.8125 40.2559C58.5586 39.9824 58.3633 39.6582 58.2266 39.2832C58.0898 38.9082 58.0215 38.498 58.0215 38.0527V37.8066C58.0215 37.291 58.0977 36.832 58.25 36.4297C58.4023 36.0234 58.6094 35.6797 58.8711 35.3984C59.1328 35.1172 59.4297 34.9043 59.7617 34.7598C60.0938 34.6152 60.4375 34.543 60.793 34.543C61.2461 34.543 61.6367 34.6211 61.9648 34.7773C62.2969 34.9336 62.5684 35.1523 62.7793 35.4336C62.9902 35.7109 63.1465 36.0391 63.248 36.418C63.3496 36.793 63.4004 37.2031 63.4004 37.6484V38.1348H58.666V37.25H62.3164V37.168C62.3008 36.8867 62.2422 36.6133 62.1406 36.3477C62.043 36.082 61.8867 35.8633 61.6719 35.6914C61.457 35.5195 61.1641 35.4336 60.793 35.4336C60.5469 35.4336 60.3203 35.4863 60.1133 35.5918C59.9062 35.6934 59.7285 35.8457 59.5801 36.0488C59.4316 36.252 59.3164 36.5 59.2344 36.793C59.1523 37.0859 59.1113 37.4238 59.1113 37.8066V38.0527C59.1113 38.3535 59.1523 38.6367 59.2344 38.9023C59.3203 39.1641 59.4434 39.3945 59.6035 39.5938C59.7676 39.793 59.9648 39.9492 60.1953 40.0625C60.4297 40.1758 60.6953 40.2324 60.9922 40.2324C61.375 40.2324 61.6992 40.1543 61.9648 39.998C62.2305 39.8418 62.4629 39.6328 62.6621 39.3711L63.3184 39.8926C63.1816 40.0996 63.0078 40.2969 62.7969 40.4844C62.5859 40.6719 62.3262 40.8242 62.0176 40.9414C61.7129 41.0586 61.3516 41.1172 60.9336 41.1172ZM65.8438 32V41H64.7539V32H65.8438ZM71.3223 39.916V36.6523C71.3223 36.4023 71.2715 36.1855 71.1699 36.002C71.0723 35.8145 70.9238 35.6699 70.7246 35.5684C70.5254 35.4668 70.2793 35.416 69.9863 35.416C69.7129 35.416 69.4727 35.4629 69.2656 35.5566C69.0625 35.6504 68.9023 35.7734 68.7852 35.9258C68.6719 36.0781 68.6152 36.2422 68.6152 36.418H67.5312C67.5312 36.1914 67.5898 35.9668 67.707 35.7441C67.8242 35.5215 67.9922 35.3203 68.2109 35.1406C68.4336 34.957 68.6992 34.8125 69.0078 34.707C69.3203 34.5977 69.668 34.543 70.0508 34.543C70.5117 34.543 70.918 34.6211 71.2695 34.7773C71.625 34.9336 71.9023 35.1699 72.1016 35.4863C72.3047 35.7988 72.4062 36.1914 72.4062 36.6641V39.6172C72.4062 39.8281 72.4238 40.0527 72.459 40.291C72.498 40.5293 72.5547 40.7344 72.6289 40.9062V41H71.498C71.4434 40.875 71.4004 40.709 71.3691 40.502C71.3379 40.291 71.3223 40.0957 71.3223 39.916ZM71.5098 37.1562L71.5215 37.918H70.4258C70.1172 37.918 69.8418 37.9434 69.5996 37.9941C69.3574 38.041 69.1543 38.1133 68.9902 38.2109C68.8262 38.3086 68.7012 38.4316 68.6152 38.5801C68.5293 38.7246 68.4863 38.8945 68.4863 39.0898C68.4863 39.2891 68.5312 39.4707 68.6211 39.6348C68.7109 39.7988 68.8457 39.9297 69.0254 40.0273C69.209 40.1211 69.4336 40.168 69.6992 40.168C70.0312 40.168 70.3242 40.0977 70.5781 39.957C70.832 39.8164 71.0332 39.6445 71.1816 39.4414C71.334 39.2383 71.416 39.041 71.4277 38.8496L71.8906 39.3711C71.8633 39.5352 71.7891 39.7168 71.668 39.916C71.5469 40.1152 71.3848 40.3066 71.1816 40.4902C70.9824 40.6699 70.7441 40.8203 70.4668 40.9414C70.1934 41.0586 69.8848 41.1172 69.541 41.1172C69.1113 41.1172 68.7344 41.0332 68.4102 40.8652C68.0898 40.6973 67.8398 40.4727 67.6602 40.1914C67.4844 39.9062 67.3965 39.5879 67.3965 39.2363C67.3965 38.8965 67.4629 38.5977 67.5957 38.3398C67.7285 38.0781 67.9199 37.8613 68.1699 37.6895C68.4199 37.5137 68.7207 37.3809 69.0723 37.291C69.4238 37.2012 69.8164 37.1562 70.25 37.1562H71.5098ZM75.1953 36.0137V41H74.1113V34.6602H75.1367L75.1953 36.0137ZM74.9375 37.5898L74.4863 37.5723C74.4902 37.1387 74.5547 36.7383 74.6797 36.3711C74.8047 36 74.9805 35.6777 75.207 35.4043C75.4336 35.1309 75.7031 34.9199 76.0156 34.7715C76.332 34.6191 76.6816 34.543 77.0645 34.543C77.377 34.543 77.6582 34.5859 77.9082 34.6719C78.1582 34.7539 78.3711 34.8867 78.5469 35.0703C78.7266 35.2539 78.8633 35.4922 78.957 35.7852C79.0508 36.0742 79.0977 36.4277 79.0977 36.8457V41H78.0078V36.834C78.0078 36.502 77.959 36.2363 77.8613 36.0371C77.7637 35.834 77.6211 35.6875 77.4336 35.5977C77.2461 35.5039 77.0156 35.457 76.7422 35.457C76.4727 35.457 76.2266 35.5137 76.0039 35.627C75.7852 35.7402 75.5957 35.8965 75.4355 36.0957C75.2793 36.2949 75.1562 36.5234 75.0664 36.7812C74.9805 37.0352 74.9375 37.3047 74.9375 37.5898ZM80.7734 34.6602H81.8633V41.7559C81.8633 42.1426 81.8008 42.4707 81.6758 42.7402C81.5547 43.0098 81.3711 43.2129 81.125 43.3496C80.8828 43.4902 80.5762 43.5605 80.2051 43.5605C80.1074 43.5605 79.9941 43.5508 79.8652 43.5312C79.7324 43.5117 79.6211 43.4883 79.5312 43.4609L79.5371 42.5879C79.6113 42.6035 79.6953 42.6152 79.7891 42.623C79.8828 42.6348 79.9648 42.6406 80.0352 42.6406C80.1953 42.6406 80.3301 42.6113 80.4395 42.5527C80.5488 42.4941 80.6309 42.4004 80.6855 42.2715C80.7441 42.1426 80.7734 41.9707 80.7734 41.7559V34.6602ZM80.6621 32.9785C80.6621 32.8027 80.7168 32.6543 80.8262 32.5332C80.9355 32.4121 81.0938 32.3516 81.3008 32.3516C81.5117 32.3516 81.6719 32.4121 81.7812 32.5332C81.8906 32.6543 81.9453 32.8027 81.9453 32.9785C81.9453 33.1465 81.8906 33.291 81.7812 33.4121C81.6719 33.5293 81.5117 33.5879 81.3008 33.5879C81.0938 33.5879 80.9355 33.5293 80.8262 33.4121C80.7168 33.291 80.6621 33.1465 80.6621 32.9785ZM87.3535 39.916V36.6523C87.3535 36.4023 87.3027 36.1855 87.2012 36.002C87.1035 35.8145 86.9551 35.6699 86.7559 35.5684C86.5566 35.4668 86.3105 35.416 86.0176 35.416C85.7441 35.416 85.5039 35.4629 85.2969 35.5566C85.0938 35.6504 84.9336 35.7734 84.8164 35.9258C84.7031 36.0781 84.6465 36.2422 84.6465 36.418H83.5625C83.5625 36.1914 83.6211 35.9668 83.7383 35.7441C83.8555 35.5215 84.0234 35.3203 84.2422 35.1406C84.4648 34.957 84.7305 34.8125 85.0391 34.707C85.3516 34.5977 85.6992 34.543 86.082 34.543C86.543 34.543 86.9492 34.6211 87.3008 34.7773C87.6562 34.9336 87.9336 35.1699 88.1328 35.4863C88.3359 35.7988 88.4375 36.1914 88.4375 36.6641V39.6172C88.4375 39.8281 88.4551 40.0527 88.4902 40.291C88.5293 40.5293 88.5859 40.7344 88.6602 40.9062V41H87.5293C87.4746 40.875 87.4316 40.709 87.4004 40.502C87.3691 40.291 87.3535 40.0957 87.3535 39.916ZM87.541 37.1562L87.5527 37.918H86.457C86.1484 37.918 85.873 37.9434 85.6309 37.9941C85.3887 38.041 85.1855 38.1133 85.0215 38.2109C84.8574 38.3086 84.7324 38.4316 84.6465 38.5801C84.5605 38.7246 84.5176 38.8945 84.5176 39.0898C84.5176 39.2891 84.5625 39.4707 84.6523 39.6348C84.7422 39.7988 84.877 39.9297 85.0566 40.0273C85.2402 40.1211 85.4648 40.168 85.7305 40.168C86.0625 40.168 86.3555 40.0977 86.6094 39.957C86.8633 39.8164 87.0645 39.6445 87.2129 39.4414C87.3652 39.2383 87.4473 39.041 87.459 38.8496L87.9219 39.3711C87.8945 39.5352 87.8203 39.7168 87.6992 39.916C87.5781 40.1152 87.416 40.3066 87.2129 40.4902C87.0137 40.6699 86.7754 40.8203 86.498 40.9414C86.2246 41.0586 85.916 41.1172 85.5723 41.1172C85.1426 41.1172 84.7656 41.0332 84.4414 40.8652C84.1211 40.6973 83.8711 40.4727 83.6914 40.1914C83.5156 39.9062 83.4277 39.5879 83.4277 39.2363C83.4277 38.8965 83.4941 38.5977 83.627 38.3398C83.7598 38.0781 83.9512 37.8613 84.2012 37.6895C84.4512 37.5137 84.752 37.3809 85.1035 37.291C85.4551 37.2012 85.8477 37.1562 86.2812 37.1562H87.541ZM96.4297 37.6543H94.1504V36.7344H96.4297C96.8711 36.7344 97.2285 36.6641 97.502 36.5234C97.7754 36.3828 97.9746 36.1875 98.0996 35.9375C98.2285 35.6875 98.293 35.4023 98.293 35.082C98.293 34.7891 98.2285 34.5137 98.0996 34.2559C97.9746 33.998 97.7754 33.791 97.502 33.6348C97.2285 33.4746 96.8711 33.3945 96.4297 33.3945H94.4141V41H93.2832V32.4688H96.4297C97.0742 32.4688 97.6191 32.5801 98.0645 32.8027C98.5098 33.0254 98.8477 33.334 99.0781 33.7285C99.3086 34.1191 99.4238 34.5664 99.4238 35.0703C99.4238 35.6172 99.3086 36.084 99.0781 36.4707C98.8477 36.8574 98.5098 37.1523 98.0645 37.3555C97.6191 37.5547 97.0742 37.6543 96.4297 37.6543ZM104.568 39.5352V34.6602H105.658V41H104.621L104.568 39.5352ZM104.773 38.1992L105.225 38.1875C105.225 38.6094 105.18 39 105.09 39.3594C105.004 39.7148 104.863 40.0234 104.668 40.2852C104.473 40.5469 104.217 40.752 103.9 40.9004C103.584 41.0449 103.199 41.1172 102.746 41.1172C102.438 41.1172 102.154 41.0723 101.896 40.9824C101.643 40.8926 101.424 40.7539 101.24 40.5664C101.057 40.3789 100.914 40.1348 100.812 39.834C100.715 39.5332 100.666 39.1719 100.666 38.75V34.6602H101.75V38.7617C101.75 39.0469 101.781 39.2832 101.844 39.4707C101.91 39.6543 101.998 39.8008 102.107 39.9102C102.221 40.0156 102.346 40.0898 102.482 40.1328C102.623 40.1758 102.768 40.1973 102.916 40.1973C103.377 40.1973 103.742 40.1094 104.012 39.9336C104.281 39.7539 104.475 39.5137 104.592 39.2129C104.713 38.9082 104.773 38.5703 104.773 38.1992ZM111.049 39.916V36.6523C111.049 36.4023 110.998 36.1855 110.896 36.002C110.799 35.8145 110.65 35.6699 110.451 35.5684C110.252 35.4668 110.006 35.416 109.713 35.416C109.439 35.416 109.199 35.4629 108.992 35.5566C108.789 35.6504 108.629 35.7734 108.512 35.9258C108.398 36.0781 108.342 36.2422 108.342 36.418H107.258C107.258 36.1914 107.316 35.9668 107.434 35.7441C107.551 35.5215 107.719 35.3203 107.938 35.1406C108.16 34.957 108.426 34.8125 108.734 34.707C109.047 34.5977 109.395 34.543 109.777 34.543C110.238 34.543 110.645 34.6211 110.996 34.7773C111.352 34.9336 111.629 35.1699 111.828 35.4863C112.031 35.7988 112.133 36.1914 112.133 36.6641V39.6172C112.133 39.8281 112.15 40.0527 112.186 40.291C112.225 40.5293 112.281 40.7344 112.355 40.9062V41H111.225C111.17 40.875 111.127 40.709 111.096 40.502C111.064 40.291 111.049 40.0957 111.049 39.916ZM111.236 37.1562L111.248 37.918H110.152C109.844 37.918 109.568 37.9434 109.326 37.9941C109.084 38.041 108.881 38.1133 108.717 38.2109C108.553 38.3086 108.428 38.4316 108.342 38.5801C108.256 38.7246 108.213 38.8945 108.213 39.0898C108.213 39.2891 108.258 39.4707 108.348 39.6348C108.438 39.7988 108.572 39.9297 108.752 40.0273C108.936 40.1211 109.16 40.168 109.426 40.168C109.758 40.168 110.051 40.0977 110.305 39.957C110.559 39.8164 110.76 39.6445 110.908 39.4414C111.061 39.2383 111.143 39.041 111.154 38.8496L111.617 39.3711C111.59 39.5352 111.516 39.7168 111.395 39.916C111.273 40.1152 111.111 40.3066 110.908 40.4902C110.709 40.6699 110.471 40.8203 110.193 40.9414C109.92 41.0586 109.611 41.1172 109.268 41.1172C108.838 41.1172 108.461 41.0332 108.137 40.8652C107.816 40.6973 107.566 40.4727 107.387 40.1914C107.211 39.9062 107.123 39.5879 107.123 39.2363C107.123 38.8965 107.189 38.5977 107.322 38.3398C107.455 38.0781 107.646 37.8613 107.896 37.6895C108.146 37.5137 108.447 37.3809 108.799 37.291C109.15 37.2012 109.543 37.1562 109.977 37.1562H111.236ZM117.529 39.3184C117.529 39.1621 117.494 39.0176 117.424 38.8848C117.357 38.748 117.219 38.625 117.008 38.5156C116.801 38.4023 116.488 38.3047 116.07 38.2227C115.719 38.1484 115.4 38.0605 115.115 37.959C114.834 37.8574 114.594 37.7344 114.395 37.5898C114.199 37.4453 114.049 37.2754 113.943 37.0801C113.838 36.8848 113.785 36.6562 113.785 36.3945C113.785 36.1445 113.84 35.9082 113.949 35.6855C114.062 35.4629 114.221 35.2656 114.424 35.0938C114.631 34.9219 114.879 34.7871 115.168 34.6895C115.457 34.5918 115.779 34.543 116.135 34.543C116.643 34.543 117.076 34.6328 117.436 34.8125C117.795 34.9922 118.07 35.2324 118.262 35.5332C118.453 35.8301 118.549 36.1602 118.549 36.5234H117.465C117.465 36.3477 117.412 36.1777 117.307 36.0137C117.205 35.8457 117.055 35.707 116.855 35.5977C116.66 35.4883 116.42 35.4336 116.135 35.4336C115.834 35.4336 115.59 35.4805 115.402 35.5742C115.219 35.6641 115.084 35.7793 114.998 35.9199C114.916 36.0605 114.875 36.209 114.875 36.3652C114.875 36.4824 114.895 36.5879 114.934 36.6816C114.977 36.7715 115.051 36.8555 115.156 36.9336C115.262 37.0078 115.41 37.0781 115.602 37.1445C115.793 37.2109 116.037 37.2773 116.334 37.3438C116.854 37.4609 117.281 37.6016 117.617 37.7656C117.953 37.9297 118.203 38.1309 118.367 38.3691C118.531 38.6074 118.613 38.8965 118.613 39.2363C118.613 39.5137 118.555 39.7676 118.438 39.998C118.324 40.2285 118.158 40.4277 117.939 40.5957C117.725 40.7598 117.467 40.8887 117.166 40.9824C116.869 41.0723 116.535 41.1172 116.164 41.1172C115.605 41.1172 115.133 41.0176 114.746 40.8184C114.359 40.6191 114.066 40.3613 113.867 40.0449C113.668 39.7285 113.568 39.3945 113.568 39.043H114.658C114.674 39.3398 114.76 39.5762 114.916 39.752C115.072 39.9238 115.264 40.0469 115.49 40.1211C115.717 40.1914 115.941 40.2266 116.164 40.2266C116.461 40.2266 116.709 40.1875 116.908 40.1094C117.111 40.0312 117.266 39.9238 117.371 39.7871C117.477 39.6504 117.529 39.4941 117.529 39.3184ZM121.021 39.7109V40.584C121.021 40.9395 120.932 41.3145 120.752 41.709C120.572 42.1074 120.32 42.4395 119.996 42.7051L119.381 42.2773C119.506 42.1055 119.611 41.9297 119.697 41.75C119.783 41.5742 119.848 41.3906 119.891 41.1992C119.938 41.0117 119.961 40.8125 119.961 40.6016V39.7109H121.021ZM131.117 36.1367V37.0566H126.5V36.1367H131.117ZM126.676 32.4688V41H125.545V32.4688H126.676ZM132.102 32.4688V41H130.977V32.4688H132.102ZM137.686 39.916V36.6523C137.686 36.4023 137.635 36.1855 137.533 36.002C137.436 35.8145 137.287 35.6699 137.088 35.5684C136.889 35.4668 136.643 35.416 136.35 35.416C136.076 35.416 135.836 35.4629 135.629 35.5566C135.426 35.6504 135.266 35.7734 135.148 35.9258C135.035 36.0781 134.979 36.2422 134.979 36.418H133.895C133.895 36.1914 133.953 35.9668 134.07 35.7441C134.188 35.5215 134.355 35.3203 134.574 35.1406C134.797 34.957 135.062 34.8125 135.371 34.707C135.684 34.5977 136.031 34.543 136.414 34.543C136.875 34.543 137.281 34.6211 137.633 34.7773C137.988 34.9336 138.266 35.1699 138.465 35.4863C138.668 35.7988 138.77 36.1914 138.77 36.6641V39.6172C138.77 39.8281 138.787 40.0527 138.822 40.291C138.861 40.5293 138.918 40.7344 138.992 40.9062V41H137.861C137.807 40.875 137.764 40.709 137.732 40.502C137.701 40.291 137.686 40.0957 137.686 39.916ZM137.873 37.1562L137.885 37.918H136.789C136.48 37.918 136.205 37.9434 135.963 37.9941C135.721 38.041 135.518 38.1133 135.354 38.2109C135.189 38.3086 135.064 38.4316 134.979 38.5801C134.893 38.7246 134.85 38.8945 134.85 39.0898C134.85 39.2891 134.895 39.4707 134.984 39.6348C135.074 39.7988 135.209 39.9297 135.389 40.0273C135.572 40.1211 135.797 40.168 136.062 40.168C136.395 40.168 136.688 40.0977 136.941 39.957C137.195 39.8164 137.396 39.6445 137.545 39.4414C137.697 39.2383 137.779 39.041 137.791 38.8496L138.254 39.3711C138.227 39.5352 138.152 39.7168 138.031 39.916C137.91 40.1152 137.748 40.3066 137.545 40.4902C137.346 40.6699 137.107 40.8203 136.83 40.9414C136.557 41.0586 136.248 41.1172 135.904 41.1172C135.475 41.1172 135.098 41.0332 134.773 40.8652C134.453 40.6973 134.203 40.4727 134.023 40.1914C133.848 39.9062 133.76 39.5879 133.76 39.2363C133.76 38.8965 133.826 38.5977 133.959 38.3398C134.092 38.0781 134.283 37.8613 134.533 37.6895C134.783 37.5137 135.084 37.3809 135.436 37.291C135.787 37.2012 136.18 37.1562 136.613 37.1562H137.873ZM141.559 35.6562V41H140.475V34.6602H141.529L141.559 35.6562ZM143.539 34.625L143.533 35.6328C143.443 35.6133 143.357 35.6016 143.275 35.5977C143.197 35.5898 143.107 35.5859 143.006 35.5859C142.756 35.5859 142.535 35.625 142.344 35.7031C142.152 35.7812 141.99 35.8906 141.857 36.0312C141.725 36.1719 141.619 36.3398 141.541 36.5352C141.467 36.7266 141.418 36.9375 141.395 37.168L141.09 37.3438C141.09 36.9609 141.127 36.6016 141.201 36.2656C141.279 35.9297 141.398 35.6328 141.559 35.375C141.719 35.1133 141.922 34.9102 142.168 34.7656C142.418 34.6172 142.715 34.543 143.059 34.543C143.137 34.543 143.227 34.5527 143.328 34.5723C143.43 34.5879 143.5 34.6055 143.539 34.625ZM148.531 34.6602H149.516V40.8652C149.516 41.4238 149.402 41.9004 149.176 42.2949C148.949 42.6895 148.633 42.9883 148.227 43.1914C147.824 43.3984 147.359 43.502 146.832 43.502C146.613 43.502 146.355 43.4668 146.059 43.3965C145.766 43.3301 145.477 43.2148 145.191 43.0508C144.91 42.8906 144.674 42.6738 144.482 42.4004L145.051 41.7559C145.316 42.0762 145.594 42.2988 145.883 42.4238C146.176 42.5488 146.465 42.6113 146.75 42.6113C147.094 42.6113 147.391 42.5469 147.641 42.418C147.891 42.2891 148.084 42.0977 148.221 41.8438C148.361 41.5938 148.432 41.2852 148.432 40.918V36.0547L148.531 34.6602ZM144.166 37.9004V37.7773C144.166 37.293 144.223 36.8535 144.336 36.459C144.453 36.0605 144.619 35.7188 144.834 35.4336C145.053 35.1484 145.316 34.9297 145.625 34.7773C145.934 34.6211 146.281 34.543 146.668 34.543C147.066 34.543 147.414 34.6133 147.711 34.7539C148.012 34.8906 148.266 35.0918 148.473 35.3574C148.684 35.6191 148.85 35.9355 148.971 36.3066C149.092 36.6777 149.176 37.0977 149.223 37.5664V38.1055C149.18 38.5703 149.096 38.9883 148.971 39.3594C148.85 39.7305 148.684 40.0469 148.473 40.3086C148.266 40.5703 148.012 40.7715 147.711 40.9121C147.41 41.0488 147.059 41.1172 146.656 41.1172C146.277 41.1172 145.934 41.0371 145.625 40.877C145.32 40.7168 145.059 40.4922 144.84 40.2031C144.621 39.9141 144.453 39.5742 144.336 39.1836C144.223 38.7891 144.166 38.3613 144.166 37.9004ZM145.25 37.7773V37.9004C145.25 38.2168 145.281 38.5137 145.344 38.791C145.41 39.0684 145.51 39.3125 145.643 39.5234C145.779 39.7344 145.953 39.9004 146.164 40.0215C146.375 40.1387 146.627 40.1973 146.92 40.1973C147.279 40.1973 147.576 40.1211 147.811 39.9688C148.045 39.8164 148.23 39.6152 148.367 39.3652C148.508 39.1152 148.617 38.8438 148.695 38.5508V37.1387C148.652 36.9238 148.586 36.7168 148.496 36.5176C148.41 36.3145 148.297 36.1348 148.156 35.9785C148.02 35.8184 147.85 35.6914 147.646 35.5977C147.443 35.5039 147.205 35.457 146.932 35.457C146.635 35.457 146.379 35.5195 146.164 35.6445C145.953 35.7656 145.779 35.9336 145.643 36.1484C145.51 36.3594 145.41 36.6055 145.344 36.8867C145.281 37.1641 145.25 37.4609 145.25 37.7773ZM154.9 39.916V36.6523C154.9 36.4023 154.85 36.1855 154.748 36.002C154.65 35.8145 154.502 35.6699 154.303 35.5684C154.104 35.4668 153.857 35.416 153.564 35.416C153.291 35.416 153.051 35.4629 152.844 35.5566C152.641 35.6504 152.48 35.7734 152.363 35.9258C152.25 36.0781 152.193 36.2422 152.193 36.418H151.109C151.109 36.1914 151.168 35.9668 151.285 35.7441C151.402 35.5215 151.57 35.3203 151.789 35.1406C152.012 34.957 152.277 34.8125 152.586 34.707C152.898 34.5977 153.246 34.543 153.629 34.543C154.09 34.543 154.496 34.6211 154.848 34.7773C155.203 34.9336 155.48 35.1699 155.68 35.4863C155.883 35.7988 155.984 36.1914 155.984 36.6641V39.6172C155.984 39.8281 156.002 40.0527 156.037 40.291C156.076 40.5293 156.133 40.7344 156.207 40.9062V41H155.076C155.021 40.875 154.979 40.709 154.947 40.502C154.916 40.291 154.9 40.0957 154.9 39.916ZM155.088 37.1562L155.1 37.918H154.004C153.695 37.918 153.42 37.9434 153.178 37.9941C152.936 38.041 152.732 38.1133 152.568 38.2109C152.404 38.3086 152.279 38.4316 152.193 38.5801C152.107 38.7246 152.064 38.8945 152.064 39.0898C152.064 39.2891 152.109 39.4707 152.199 39.6348C152.289 39.7988 152.424 39.9297 152.604 40.0273C152.787 40.1211 153.012 40.168 153.277 40.168C153.609 40.168 153.902 40.0977 154.156 39.957C154.41 39.8164 154.611 39.6445 154.76 39.4414C154.912 39.2383 154.994 39.041 155.006 38.8496L155.469 39.3711C155.441 39.5352 155.367 39.7168 155.246 39.916C155.125 40.1152 154.963 40.3066 154.76 40.4902C154.561 40.6699 154.322 40.8203 154.045 40.9414C153.771 41.0586 153.463 41.1172 153.119 41.1172C152.689 41.1172 152.312 41.0332 151.988 40.8652C151.668 40.6973 151.418 40.4727 151.238 40.1914C151.062 39.9062 150.975 39.5879 150.975 39.2363C150.975 38.8965 151.041 38.5977 151.174 38.3398C151.307 38.0781 151.498 37.8613 151.748 37.6895C151.998 37.5137 152.299 37.3809 152.65 37.291C153.002 37.2012 153.395 37.1562 153.828 37.1562H155.088ZM163.977 37.6543H161.697V36.7344H163.977C164.418 36.7344 164.775 36.6641 165.049 36.5234C165.322 36.3828 165.521 36.1875 165.646 35.9375C165.775 35.6875 165.84 35.4023 165.84 35.082C165.84 34.7891 165.775 34.5137 165.646 34.2559C165.521 33.998 165.322 33.791 165.049 33.6348C164.775 33.4746 164.418 33.3945 163.977 33.3945H161.961V41H160.83V32.4688H163.977C164.621 32.4688 165.166 32.5801 165.611 32.8027C166.057 33.0254 166.395 33.334 166.625 33.7285C166.855 34.1191 166.971 34.5664 166.971 35.0703C166.971 35.6172 166.855 36.084 166.625 36.4707C166.395 36.8574 166.057 37.1523 165.611 37.3555C165.166 37.5547 164.621 37.6543 163.977 37.6543ZM171.904 39.916V36.6523C171.904 36.4023 171.854 36.1855 171.752 36.002C171.654 35.8145 171.506 35.6699 171.307 35.5684C171.107 35.4668 170.861 35.416 170.568 35.416C170.295 35.416 170.055 35.4629 169.848 35.5566C169.645 35.6504 169.484 35.7734 169.367 35.9258C169.254 36.0781 169.197 36.2422 169.197 36.418H168.113C168.113 36.1914 168.172 35.9668 168.289 35.7441C168.406 35.5215 168.574 35.3203 168.793 35.1406C169.016 34.957 169.281 34.8125 169.59 34.707C169.902 34.5977 170.25 34.543 170.633 34.543C171.094 34.543 171.5 34.6211 171.852 34.7773C172.207 34.9336 172.484 35.1699 172.684 35.4863C172.887 35.7988 172.988 36.1914 172.988 36.6641V39.6172C172.988 39.8281 173.006 40.0527 173.041 40.291C173.08 40.5293 173.137 40.7344 173.211 40.9062V41H172.08C172.025 40.875 171.982 40.709 171.951 40.502C171.92 40.291 171.904 40.0957 171.904 39.916ZM172.092 37.1562L172.104 37.918H171.008C170.699 37.918 170.424 37.9434 170.182 37.9941C169.939 38.041 169.736 38.1133 169.572 38.2109C169.408 38.3086 169.283 38.4316 169.197 38.5801C169.111 38.7246 169.068 38.8945 169.068 39.0898C169.068 39.2891 169.113 39.4707 169.203 39.6348C169.293 39.7988 169.428 39.9297 169.607 40.0273C169.791 40.1211 170.016 40.168 170.281 40.168C170.613 40.168 170.906 40.0977 171.16 39.957C171.414 39.8164 171.615 39.6445 171.764 39.4414C171.916 39.2383 171.998 39.041 172.01 38.8496L172.473 39.3711C172.445 39.5352 172.371 39.7168 172.25 39.916C172.129 40.1152 171.967 40.3066 171.764 40.4902C171.564 40.6699 171.326 40.8203 171.049 40.9414C170.775 41.0586 170.467 41.1172 170.123 41.1172C169.693 41.1172 169.316 41.0332 168.992 40.8652C168.672 40.6973 168.422 40.4727 168.242 40.1914C168.066 39.9062 167.979 39.5879 167.979 39.2363C167.979 38.8965 168.045 38.5977 168.178 38.3398C168.311 38.0781 168.502 37.8613 168.752 37.6895C169.002 37.5137 169.303 37.3809 169.654 37.291C170.006 37.2012 170.398 37.1562 170.832 37.1562H172.092ZM178.385 39.3184C178.385 39.1621 178.35 39.0176 178.279 38.8848C178.213 38.748 178.074 38.625 177.863 38.5156C177.656 38.4023 177.344 38.3047 176.926 38.2227C176.574 38.1484 176.256 38.0605 175.971 37.959C175.689 37.8574 175.449 37.7344 175.25 37.5898C175.055 37.4453 174.904 37.2754 174.799 37.0801C174.693 36.8848 174.641 36.6562 174.641 36.3945C174.641 36.1445 174.695 35.9082 174.805 35.6855C174.918 35.4629 175.076 35.2656 175.279 35.0938C175.486 34.9219 175.734 34.7871 176.023 34.6895C176.312 34.5918 176.635 34.543 176.99 34.543C177.498 34.543 177.932 34.6328 178.291 34.8125C178.65 34.9922 178.926 35.2324 179.117 35.5332C179.309 35.8301 179.404 36.1602 179.404 36.5234H178.32C178.32 36.3477 178.268 36.1777 178.162 36.0137C178.061 35.8457 177.91 35.707 177.711 35.5977C177.516 35.4883 177.275 35.4336 176.99 35.4336C176.689 35.4336 176.445 35.4805 176.258 35.5742C176.074 35.6641 175.939 35.7793 175.854 35.9199C175.771 36.0605 175.73 36.209 175.73 36.3652C175.73 36.4824 175.75 36.5879 175.789 36.6816C175.832 36.7715 175.906 36.8555 176.012 36.9336C176.117 37.0078 176.266 37.0781 176.457 37.1445C176.648 37.2109 176.893 37.2773 177.189 37.3438C177.709 37.4609 178.137 37.6016 178.473 37.7656C178.809 37.9297 179.059 38.1309 179.223 38.3691C179.387 38.6074 179.469 38.8965 179.469 39.2363C179.469 39.5137 179.41 39.7676 179.293 39.998C179.18 40.2285 179.014 40.4277 178.795 40.5957C178.58 40.7598 178.322 40.8887 178.021 40.9824C177.725 41.0723 177.391 41.1172 177.02 41.1172C176.461 41.1172 175.988 41.0176 175.602 40.8184C175.215 40.6191 174.922 40.3613 174.723 40.0449C174.523 39.7285 174.424 39.3945 174.424 39.043H175.514C175.529 39.3398 175.615 39.5762 175.771 39.752C175.928 39.9238 176.119 40.0469 176.346 40.1211C176.572 40.1914 176.797 40.2266 177.02 40.2266C177.316 40.2266 177.564 40.1875 177.764 40.1094C177.967 40.0312 178.121 39.9238 178.227 39.7871C178.332 39.6504 178.385 39.4941 178.385 39.3184Z" fill="#666666"/>
<path d="M6.65453 11H9.30367C9.10688 11.6762 9.07228 12.3882 9.20256 13.0799C9.33275 13.7716 9.62427 14.424 10.0542 14.9858C10.484 15.5476 11.0405 16.0033 11.6796 16.3172C12.3188 16.6311 13.0231 16.7945 13.7373 16.7945C14.4516 16.7945 15.1559 16.6311 15.7951 16.3172C16.4343 16.0033 16.9907 15.5476 17.4205 14.9858C17.8505 14.424 18.142 13.7716 18.2722 13.0799C18.4024 12.3882 18.3678 11.6762 18.1711 11H25.2222C25.0241 11.6771 24.9885 12.3902 25.1182 13.0831C25.2479 13.7761 25.5393 14.4299 25.9695 14.9929C26.3997 15.5559 26.9567 16.0127 27.5969 16.3273C28.237 16.6419 28.9425 16.8057 29.6579 16.8057C30.3732 16.8057 31.0788 16.6419 31.7189 16.3273C32.359 16.0127 32.9161 15.5559 33.3462 14.9929C33.7764 14.4299 34.0678 13.7761 34.1975 13.0831C34.3272 12.3902 34.2916 11.6771 34.0935 11H37.3455C38.4302 11.0022 39.4708 11.4229 40.2445 12.1719C40.949 12.8753 41.3799 13.8003 41.4619 14.7851L43.9762 43.3828C43.9802 43.4309 43.9802 43.4792 43.9762 43.5273C43.9762 43.6055 43.9762 43.664 43.9762 43.6953C43.9676 44.7155 43.5633 45.6937 42.846 46.4297C42.1322 47.1707 41.1636 47.6233 40.1295 47.6992H40.058H39.8399H4.13628H3.91023H3.84281C2.80897 47.6219 1.84102 47.1695 1.12627 46.4297C0.41112 45.6927 0.00831276 44.7148 0 43.6953C0 43.6601 0 43.5859 0 43.4843V43.3828L2.53412 14.7969V14.6758C2.59124 14.2399 2.71701 13.8155 2.9069 13.4179C3.11303 12.9668 3.39907 12.5555 3.7516 12.2031C3.80315 12.1523 3.85868 12.1055 3.91023 12.0624C4.26143 11.7537 4.66386 11.5067 5.09995 11.332C5.59541 11.1299 6.12619 11.025 6.66246 11.0234L6.65453 11Z" fill="#1E124C"/>
<path d="M6.65455 13.1797H9.17677C9.34138 14.2551 9.89216 15.2365 10.729 15.9459C11.5659 16.6553 12.6334 17.0453 13.7374 17.0453C14.8415 17.0453 15.9089 16.6553 16.7457 15.9459C17.5826 15.2365 18.1334 14.2551 18.298 13.1797H25.0953C25.2599 14.2551 25.8107 15.2365 26.6475 15.9459C27.4844 16.6553 28.5519 17.0453 29.6559 17.0453C30.76 17.0453 31.8274 16.6553 32.6642 15.9459C33.5011 15.2365 34.0519 14.2551 34.2165 13.1797H37.3415C37.6248 13.1784 37.9056 13.2331 38.1672 13.3404C38.4287 13.4478 38.6657 13.6056 38.8643 13.8047C39.2514 14.1869 39.4828 14.6956 39.5148 15.2344L42.037 43.8164C42.037 43.8828 42.037 43.9336 42.037 43.9648C42.0265 44.5011 41.8127 45.0141 41.4377 45.403C41.0627 45.7918 40.5536 46.0285 40.0105 46.0664H39.8598H4.13631H3.98164C3.43751 46.0293 2.92733 45.7924 2.55206 45.4024C2.1768 45.0126 1.96378 44.4982 1.95514 43.961C1.95514 43.9297 1.95514 43.8828 1.95514 43.8125L4.48133 15.2344C4.52059 14.6915 4.76042 14.1815 5.1555 13.8008C5.55869 13.4044 6.10469 13.1811 6.67439 13.1797H6.65455Z" fill="#F8F8F8"/>
<path d="M14.3402 10.3437V9.08597C14.3464 7.16948 15.1216 5.33315 16.4966 3.97727C17.8717 2.62139 19.7351 1.85589 21.6808 1.84766C23.6278 1.85176 25.4941 2.61437 26.8723 3.96901C28.2506 5.32365 29.0289 7.16032 29.0372 9.07809V10.3867C28.645 10.5126 28.2957 10.7427 28.0277 11.0516C27.7598 11.3605 27.5836 11.7363 27.5186 12.1376C27.4537 12.5388 27.5024 12.95 27.6595 13.3257C27.8165 13.7013 28.0759 14.0271 28.4089 14.2669C28.7419 14.5067 29.1357 14.6513 29.5468 14.6847C29.9579 14.7182 30.3704 14.6392 30.7388 14.4565C31.1073 14.2738 31.4174 13.9944 31.6349 13.6492C31.8525 13.304 31.9691 12.9063 31.9718 12.5C31.9783 12.124 31.886 11.7528 31.704 11.4222C31.5219 11.0917 31.2563 10.813 30.9328 10.6133V9.07809C30.9265 6.66898 29.9508 4.36057 28.2195 2.65887C26.4882 0.95718 24.1424 0.00102598 21.6966 0C19.2508 0.00309837 16.906 0.961234 15.1761 2.66439C13.4463 4.36755 12.4725 6.67679 12.4683 9.08597V10.7265C12.0633 11.0301 11.7753 11.4603 11.6516 11.9466C11.528 12.4329 11.576 12.946 11.7879 13.4018C11.9997 13.8575 12.3628 14.2287 12.8174 14.4541C13.2718 14.6796 13.7907 14.7459 14.2886 14.6422C14.7865 14.5386 15.2337 14.271 15.5567 13.8837C15.8797 13.4963 16.0591 13.0122 16.0656 12.5109C16.0721 12.0098 15.9051 11.5213 15.5922 11.126C15.2794 10.7307 14.8392 10.452 14.3442 10.3359L14.3402 10.3437Z" fill="#1E124C"/>
<path d="M12.3378 24.4312L11.0169 24.2097V23.1533H13.5402C13.9239 23.1533 14.4207 23.1305 15.0304 23.0852C15.177 23.0738 15.3521 23.0624 15.5554 23.0511C15.7586 23.0397 15.9956 23.0341 16.2666 23.0341C17.9712 23.0341 19.1624 23.2782 19.8398 23.7667C20.5283 24.2438 20.8728 24.9594 20.8728 25.9135C20.8728 26.754 20.6187 27.4582 20.1107 28.0262C19.6138 28.5827 18.9592 28.9234 18.1463 29.0485C19.264 29.0371 20.1388 29.2926 20.7711 29.8152C21.4146 30.3376 21.7364 31.0646 21.7364 31.9961C21.7364 33.1773 21.3242 34.1258 20.5002 34.8414C19.676 35.557 18.2987 35.9148 16.3682 35.9148C15.8602 35.9148 15.3916 35.8978 14.9626 35.8637C14.8497 35.8637 14.6578 35.8523 14.3869 35.8296C14.1159 35.8182 13.8392 35.8126 13.5571 35.8126H11V34.7903L12.3378 34.6199V24.4312ZM14.7933 28.6737C14.9174 28.6849 15.1714 28.6907 15.5554 28.6907H16.3513C17.0398 28.6907 17.5536 28.4748 17.8923 28.0432C18.231 27.6115 18.4003 27.0039 18.4003 26.2202C18.4003 25.4705 18.2252 24.9253 17.8754 24.5845C17.5253 24.2438 16.944 24.0734 16.1311 24.0734C15.9166 24.0734 15.4707 24.0961 14.7933 24.1415V28.6737ZM14.7933 34.6881C15.0529 34.7903 15.5496 34.8414 16.2835 34.8414C17.243 34.8414 17.9373 34.6141 18.3665 34.1599C18.7954 33.7055 19.01 33.0466 19.01 32.1835C19.01 31.3542 18.8123 30.7635 18.4173 30.4115C18.0334 30.0479 17.4181 29.8663 16.5714 29.8663C15.6231 29.8663 15.0304 29.8776 14.7933 29.9004V34.6881ZM27.3092 36C26.6995 36 26.1519 35.9489 25.6665 35.8467C25.181 35.7444 24.6391 35.6081 24.0408 35.4377C23.6456 35.3241 23.3804 35.2616 23.2449 35.2503L23.3973 32.0983H24.769L25.1416 34.2962C25.2882 34.4552 25.548 34.5971 25.9206 34.7221C26.3043 34.847 26.739 34.9096 27.2245 34.9096C27.9808 34.9096 28.5454 34.7448 28.9179 34.4155C29.3017 34.0747 29.4937 33.6033 29.4937 33.0013C29.4937 32.6036 29.3808 32.2629 29.155 31.979C28.9291 31.6836 28.6187 31.4224 28.2236 31.1953C27.8284 30.9567 27.2865 30.6841 26.5979 30.3775C25.6608 29.9457 24.8818 29.4346 24.261 28.844C23.6513 28.2419 23.3465 27.4299 23.3465 26.4076C23.3465 25.7714 23.5101 25.1979 23.8376 24.6868C24.165 24.1642 24.6505 23.7553 25.294 23.46C25.9487 23.1533 26.7446 23 27.6817 23C28.2348 23 28.7203 23.0397 29.1381 23.1193C29.567 23.1987 30.0299 23.3067 30.5267 23.443C30.8202 23.5224 31.0403 23.5735 31.1871 23.5963L31.0855 26.578H29.7308L29.3752 24.4823C29.2736 24.3801 29.0704 24.2835 28.7655 24.1927C28.4607 24.0904 28.122 24.0393 27.7495 24.0393C27.0721 24.0393 26.5583 24.1983 26.2084 24.5164C25.8698 24.8231 25.7004 25.2376 25.7004 25.7602C25.7004 26.1803 25.8245 26.5439 26.073 26.8506C26.3326 27.1573 26.643 27.4185 27.0044 27.6343C27.3656 27.8388 27.9357 28.1341 28.7147 28.5203C29.3469 28.827 29.8888 29.1279 30.3404 29.4233C30.7919 29.7186 31.1814 30.1048 31.5089 30.5819C31.8362 31.0476 32 31.5984 32 32.2346C32 32.8592 31.8418 33.4555 31.5258 34.0236C31.221 34.5915 30.713 35.0629 30.0017 35.4377C29.3017 35.8126 28.4041 36 27.3092 36Z" fill="#A43CE3"/>
</svg>
