<svg width="60" height="66" viewBox="0 0 60 66" fill="none" xmlns="http://www.w3.org/2000/svg">
<path d="M9.07435 15.125H12.6868C12.4185 16.0548 12.3713 17.0338 12.5489 17.9849C12.7265 18.9359 13.124 19.833 13.7102 20.6055C14.2964 21.3779 15.0552 22.0046 15.9267 22.4362C16.7984 22.8677 17.7588 23.0924 18.7327 23.0924C19.7067 23.0924 20.6672 22.8677 21.5388 22.4362C22.4104 22.0046 23.1692 21.3779 23.7553 20.6055C24.3415 19.833 24.7391 18.9359 24.9166 17.9849C25.0942 17.0338 25.0471 16.0548 24.7787 15.125H34.3939C34.1238 16.056 34.0753 17.0365 34.2521 17.9893C34.4289 18.9422 34.8263 19.8411 35.4129 20.6153C35.9995 21.3893 36.7592 22.0175 37.6321 22.4501C38.5049 22.8826 39.4671 23.1078 40.4426 23.1078C41.418 23.1078 42.3801 22.8826 43.2531 22.4501C44.1259 22.0175 44.8855 21.3893 45.4721 20.6153C46.0587 19.8411 46.4561 18.9422 46.6329 17.9893C46.8098 17.0365 46.7613 16.056 46.4912 15.125H50.9256C52.4048 15.1281 53.8239 15.7065 54.8788 16.7363C55.8395 17.7035 56.4272 18.9754 56.5389 20.3296L59.9675 59.6513C59.9731 59.7174 59.9731 59.7839 59.9675 59.85C59.9675 59.9575 59.9675 60.038 59.9675 60.081C59.9559 61.4838 59.4045 62.8289 58.4263 63.8408C57.4529 64.8598 56.1322 65.4821 54.722 65.5864H54.6246H54.3272H5.64038H5.33213H5.2402C3.83041 65.4801 2.51048 64.858 1.53582 63.8408C0.560617 62.8274 0.0113356 61.4828 0 60.081C0 60.0327 0 59.9306 0 59.791V59.6513L3.45561 20.3457V20.1792C3.53351 19.5799 3.70501 18.9964 3.96395 18.4496C4.24505 17.8294 4.63509 17.2638 5.11582 16.7792C5.18612 16.7095 5.26183 16.645 5.33213 16.5858C5.81105 16.1613 6.35981 15.8217 6.95448 15.5815C7.63011 15.3036 8.35389 15.1594 9.08518 15.1572L9.07435 15.125Z" fill="#1E124C"/>
<path d="M9.07437 18.1221H12.5138C12.7382 19.6007 13.4893 20.9502 14.6305 21.9256C15.7716 22.9009 17.2273 23.4373 18.7328 23.4373C20.2383 23.4373 21.6939 22.9009 22.8351 21.9256C23.9762 20.9502 24.7273 19.6007 24.9518 18.1221H34.2208C34.4453 19.6007 35.1963 20.9502 36.3375 21.9256C37.4787 22.9009 38.9343 23.4373 40.4399 23.4373C41.9454 23.4373 43.4009 22.9009 44.5421 21.9256C45.6833 20.9502 46.4343 19.6007 46.6588 18.1221H50.9202C51.3066 18.1203 51.6894 18.1955 52.0461 18.3431C52.4027 18.4907 52.726 18.7077 52.9968 18.9815C53.5246 19.507 53.8401 20.2064 53.8838 20.9472L57.3232 60.2475C57.3232 60.3388 57.3232 60.4087 57.3232 60.4516C57.3088 61.189 57.0173 61.8943 56.506 62.429C55.9946 62.9638 55.3003 63.2892 54.5598 63.3413H54.3542H5.64039H5.42949C4.68749 63.2902 3.99179 62.9645 3.48006 62.4283C2.96834 61.8923 2.67785 61.1849 2.66608 60.4463C2.66608 60.4033 2.66608 60.3389 2.66608 60.2422L6.11088 20.9472C6.16442 20.2007 6.49146 19.4995 7.03021 18.9761C7.58001 18.431 8.32456 18.124 9.10142 18.1221H9.07437Z" fill="#F8F8F8"/>
<path d="M19.5548 14.2226V12.4932C19.5633 9.85803 20.6203 7.33308 22.4954 5.46875C24.3705 3.60441 26.9115 2.55185 29.5647 2.54053C32.2198 2.54617 34.7647 3.59476 36.6441 5.45739C38.5235 7.32001 39.5848 9.84544 39.5962 12.4824V14.2817C39.0614 14.4548 38.5851 14.7712 38.2196 15.1959C37.8542 15.6207 37.614 16.1375 37.5254 16.6892C37.4368 17.2409 37.5033 17.8062 37.7175 18.3228C37.9316 18.8393 38.2853 19.2872 38.7394 19.617C39.1935 19.9467 39.7305 20.1456 40.2911 20.1915C40.8516 20.2375 41.4142 20.1289 41.9166 19.8777C42.4191 19.6265 42.8419 19.2423 43.1386 18.7677C43.4353 18.293 43.5942 17.7462 43.598 17.1875C43.6068 16.6705 43.4809 16.1601 43.2327 15.7055C42.9845 15.2511 42.6222 14.8679 42.1812 14.5933V12.4824C42.1726 9.16985 40.842 5.99578 38.4812 3.65595C36.1202 1.31612 32.9215 0.00141073 29.5863 0C26.2511 0.00426025 23.0536 1.3217 20.6947 3.66354C18.3359 6.00539 17.008 9.18059 17.0022 12.4932V14.749C16.45 15.1663 16.0573 15.758 15.8886 16.4266C15.72 17.0952 15.7855 17.8008 16.0745 18.4274C16.3633 19.0541 16.8583 19.5644 17.4782 19.8744C18.098 20.1845 18.8055 20.2757 19.4845 20.1331C20.1634 19.9906 20.7733 19.6226 21.2136 19.09C21.6541 18.5574 21.8988 17.8918 21.9076 17.2025C21.9165 16.5134 21.6888 15.8418 21.2621 15.2982C20.8355 14.7547 20.2353 14.3715 19.5602 14.2119L19.5548 14.2226Z" fill="#1E124C"/>
<path d="M16.8243 33.5929L15.0231 33.2883V31.8358H18.4639C18.9871 31.8358 19.6647 31.8045 20.496 31.7421C20.696 31.7264 20.9347 31.7107 21.2118 31.6953C21.489 31.6796 21.8122 31.6719 22.1817 31.6719C24.5062 31.6719 26.1305 32.0076 27.0542 32.6792C27.9931 33.3352 28.4628 34.3191 28.4628 35.6311C28.4628 36.7867 28.1165 37.755 27.4237 38.536C26.7462 39.3012 25.8534 39.7697 24.745 39.9417C26.2691 39.926 27.462 40.2774 28.3243 40.9959C29.2018 41.7142 29.6405 42.7138 29.6405 43.9946C29.6405 45.6188 29.0785 46.923 27.9548 47.9069C26.8309 48.8909 24.9528 49.3829 22.3203 49.3829C21.6275 49.3829 20.9885 49.3594 20.4036 49.3126C20.2496 49.3126 19.9879 49.2969 19.6185 49.2657C19.249 49.25 18.8717 49.2423 18.4869 49.2423H15V47.8367L16.8243 47.6024V33.5929ZM20.1727 39.4263C20.342 39.4417 20.6883 39.4497 21.2118 39.4497H22.2972C23.2361 39.4497 23.9367 39.1529 24.3986 38.5595C24.8604 37.9658 25.0914 37.1304 25.0914 36.0528C25.0914 35.022 24.8526 34.2723 24.3755 33.8037C23.8982 33.3352 23.1054 33.1009 21.997 33.1009C21.7044 33.1009 21.0964 33.1321 20.1727 33.1946V39.4263ZM20.1727 47.6961C20.5267 47.8367 21.204 47.9069 22.2048 47.9069C23.5132 47.9069 24.46 47.5944 25.0452 46.9699C25.6301 46.3451 25.9227 45.4391 25.9227 44.2523C25.9227 43.1121 25.6532 42.2999 25.1145 41.8159C24.5909 41.3159 23.752 41.0662 22.5974 41.0662C21.3042 41.0662 20.496 41.0816 20.1727 41.113V47.6961ZM37.2398 49.5C36.4085 49.5 35.6617 49.4297 34.9998 49.2892C34.3378 49.1486 33.5988 48.9612 32.783 48.7269C32.244 48.5706 31.8824 48.4847 31.6976 48.4692L31.9054 44.1352H33.7759L34.284 47.1573C34.4839 47.3758 34.8382 47.571 35.3462 47.743C35.8695 47.9147 36.4623 48.0007 37.1243 48.0007C38.1556 48.0007 38.9255 47.7741 39.4336 47.3213C39.9568 46.8527 40.2187 46.2045 40.2187 45.3768C40.2187 44.83 40.0647 44.3615 39.7568 43.9712C39.4488 43.5649 39.0255 43.2058 38.4868 42.8935C37.9478 42.5655 37.2088 42.1907 36.2699 41.769C34.992 41.1754 33.9297 40.4725 33.0832 39.6606C32.2518 38.8326 31.8362 37.7161 31.8362 36.3105C31.8362 35.4357 32.0592 34.6471 32.5059 33.9443C32.9522 33.2258 33.6143 32.6635 34.4918 32.2575C35.3845 31.8358 36.4699 31.625 37.7478 31.625C38.502 31.625 39.1641 31.6796 39.7338 31.789C40.3187 31.8982 40.9498 32.0467 41.6273 32.2341C42.0275 32.3433 42.3277 32.4136 42.5279 32.445L42.3894 36.5447H40.542L40.057 33.6632C39.9185 33.5226 39.6414 33.3898 39.2257 33.2649C38.8101 33.1243 38.3482 33.0541 37.8402 33.0541C36.9165 33.0541 36.2159 33.2726 35.7388 33.71C35.2769 34.1317 35.046 34.7017 35.046 35.4202C35.046 35.9979 35.2153 36.4979 35.554 36.9196C35.908 37.3413 36.3313 37.7004 36.8241 37.9972C37.3167 38.2783 38.0942 38.6843 39.1564 39.2154C40.0185 39.6371 40.7574 40.0509 41.3733 40.4571C41.989 40.8631 42.5201 41.3942 42.9667 42.0501C43.4131 42.6904 43.6364 43.4478 43.6364 44.3226C43.6364 45.1814 43.4207 46.0014 42.9898 46.7824C42.5741 47.5633 41.8813 48.2115 40.9115 48.7269C39.9568 49.2423 38.7329 49.5 37.2398 49.5Z" fill="#A43CE3"/>
</svg>
